%TF.GenerationSoftware,KiCad,Pcbnew,9.0.7+1*%
%TF.CreationDate,2026-10-09T08:52:13+00:00*%
%TF.ProjectId,KNEE CONTROLLER PCBA,4b4e4545-2043-44f4-9e54-524f4c4c4552,${REVISION}*%
%TF.SameCoordinates,Original*%
%TF.FileFunction,Paste,Top*%
%TF.FilePolarity,Positive*%
%FSLAX46Y46*%
G04 Gerber Fmt 4.6, Leading zero omitted, Abs format (unit mm)*
G04 Created by KiCad (PCBNEW 9.0.7+1) date 2026-10-09 08:52:13*
%MOMM*%
%LPD*%
G01*
G04 APERTURE LIST*
G04 Aperture macros list*
%AMRoundRect*
0 Rectangle with rounded corners*
0 $1 Rounding radius*
0 $2 $3 $4 $5 $6 $7 $8 $9 X,Y pos of 4 corners*
0 Add a 4 corners polygon primitive as box body*
4,1,4,$2,$3,$4,$5,$6,$7,$8,$9,$2,$3,0*
0 Add four circle primitives for the rounded corners*
1,1,$1+$1,$2,$3*
1,1,$1+$1,$4,$5*
1,1,$1+$1,$6,$7*
1,1,$1+$1,$8,$9*
0 Add four rect primitives between the rounded corners*
20,1,$1+$1,$2,$3,$4,$5,0*
20,1,$1+$1,$4,$5,$6,$7,0*
20,1,$1+$1,$6,$7,$8,$9,0*
20,1,$1+$1,$8,$9,$2,$3,0*%
G04 Aperture macros list end*
%ADD10RoundRect,0.250000X0.650000X-0.325000X0.650000X0.325000X-0.650000X0.325000X-0.650000X-0.325000X0*%
%ADD11RoundRect,0.218750X0.256250X-0.218750X0.256250X0.218750X-0.256250X0.218750X-0.256250X-0.218750X0*%
%ADD12RoundRect,0.200000X0.200000X0.275000X-0.200000X0.275000X-0.200000X-0.275000X0.200000X-0.275000X0*%
%ADD13RoundRect,0.150000X0.512500X0.150000X-0.512500X0.150000X-0.512500X-0.150000X0.512500X-0.150000X0*%
%ADD14RoundRect,0.200000X-0.200000X-0.275000X0.200000X-0.275000X0.200000X0.275000X-0.200000X0.275000X0*%
%ADD15RoundRect,0.250000X-0.325000X-0.650000X0.325000X-0.650000X0.325000X0.650000X-0.325000X0.650000X0*%
%ADD16RoundRect,0.200000X-0.275000X0.200000X-0.275000X-0.200000X0.275000X-0.200000X0.275000X0.200000X0*%
%ADD17RoundRect,0.250000X0.325000X0.650000X-0.325000X0.650000X-0.325000X-0.650000X0.325000X-0.650000X0*%
%ADD18RoundRect,0.225000X-0.225000X-0.250000X0.225000X-0.250000X0.225000X0.250000X-0.225000X0.250000X0*%
%ADD19RoundRect,0.070000X0.430000X0.280000X-0.430000X0.280000X-0.430000X-0.280000X0.430000X-0.280000X0*%
%ADD20RoundRect,0.250000X-0.362500X-1.425000X0.362500X-1.425000X0.362500X1.425000X-0.362500X1.425000X0*%
%ADD21RoundRect,0.225000X0.250000X-0.225000X0.250000X0.225000X-0.250000X0.225000X-0.250000X-0.225000X0*%
%ADD22RoundRect,0.150000X0.150000X-0.825000X0.150000X0.825000X-0.150000X0.825000X-0.150000X-0.825000X0*%
%ADD23RoundRect,0.200000X0.275000X-0.200000X0.275000X0.200000X-0.275000X0.200000X-0.275000X-0.200000X0*%
%ADD24RoundRect,0.225000X-0.250000X0.225000X-0.250000X-0.225000X0.250000X-0.225000X0.250000X0.225000X0*%
%ADD25RoundRect,0.250000X-1.450000X0.312500X-1.450000X-0.312500X1.450000X-0.312500X1.450000X0.312500X0*%
%ADD26RoundRect,0.135000X-0.185000X0.135000X-0.185000X-0.135000X0.185000X-0.135000X0.185000X0.135000X0*%
%ADD27RoundRect,0.225000X0.225000X0.250000X-0.225000X0.250000X-0.225000X-0.250000X0.225000X-0.250000X0*%
%ADD28RoundRect,0.075000X-0.075000X0.700000X-0.075000X-0.700000X0.075000X-0.700000X0.075000X0.700000X0*%
%ADD29RoundRect,0.075000X-0.700000X0.075000X-0.700000X-0.075000X0.700000X-0.075000X0.700000X0.075000X0*%
%ADD30RoundRect,0.250000X0.750000X0.950000X-0.750000X0.950000X-0.750000X-0.950000X0.750000X-0.950000X0*%
%ADD31RoundRect,0.243750X-0.243750X-0.456250X0.243750X-0.456250X0.243750X0.456250X-0.243750X0.456250X0*%
%ADD32RoundRect,0.250000X-0.475000X0.250000X-0.475000X-0.250000X0.475000X-0.250000X0.475000X0.250000X0*%
%ADD33RoundRect,0.075000X0.650000X0.075000X-0.650000X0.075000X-0.650000X-0.075000X0.650000X-0.075000X0*%
%ADD34RoundRect,0.250000X2.350000X-0.325000X2.350000X0.325000X-2.350000X0.325000X-2.350000X-0.325000X0*%
%ADD35RoundRect,0.200000X0.053033X-0.335876X0.335876X-0.053033X-0.053033X0.335876X-0.335876X0.053033X0*%
%ADD36RoundRect,0.243750X0.243750X0.456250X-0.243750X0.456250X-0.243750X-0.456250X0.243750X-0.456250X0*%
%ADD37RoundRect,0.250000X0.485000X-0.300000X0.485000X0.300000X-0.485000X0.300000X-0.485000X-0.300000X0*%
%ADD38RoundRect,0.150000X0.150000X-0.820000X0.150000X0.820000X-0.150000X0.820000X-0.150000X-0.820000X0*%
%ADD39RoundRect,0.150000X0.500000X-0.150000X0.500000X0.150000X-0.500000X0.150000X-0.500000X-0.150000X0*%
%ADD40RoundRect,0.075000X0.575000X-0.075000X0.575000X0.075000X-0.575000X0.075000X-0.575000X-0.075000X0*%
%ADD41RoundRect,0.250000X0.250000X0.475000X-0.250000X0.475000X-0.250000X-0.475000X0.250000X-0.475000X0*%
%ADD42R,3.100000X2.400000*%
%ADD43R,0.500000X2.200000*%
%ADD44RoundRect,0.250000X1.125000X-1.275000X1.125000X1.275000X-1.125000X1.275000X-1.125000X-1.275000X0*%
%ADD45RoundRect,0.250000X0.350000X-0.850000X0.350000X0.850000X-0.350000X0.850000X-0.350000X-0.850000X0*%
%ADD46RoundRect,0.249999X3.500001X-0.850001X3.500001X0.850001X-3.500001X0.850001X-3.500001X-0.850001X0*%
%ADD47RoundRect,0.250000X0.250000X0.250000X-0.250000X0.250000X-0.250000X-0.250000X0.250000X-0.250000X0*%
%ADD48RoundRect,0.375000X-0.625000X-0.375000X0.625000X-0.375000X0.625000X0.375000X-0.625000X0.375000X0*%
%ADD49RoundRect,0.500000X-0.500000X-1.400000X0.500000X-1.400000X0.500000X1.400000X-0.500000X1.400000X0*%
%ADD50R,2.400000X0.740000*%
%ADD51RoundRect,0.150000X-0.512500X-0.150000X0.512500X-0.150000X0.512500X0.150000X-0.512500X0.150000X0*%
G04 APERTURE END LIST*
D10*
%TO.C,C22*%
X199560000Y-137895001D03*
X199560000Y-134944999D03*
%TD*%
D11*
%TO.C,FB1*%
X203370000Y-91487501D03*
X203370000Y-89912499D03*
%TD*%
D12*
%TO.C,R3*%
X234992500Y-162772500D03*
X233342500Y-162772500D03*
%TD*%
D13*
%TO.C,U9*%
X231177500Y-144354999D03*
X231177500Y-143405000D03*
X231177500Y-142455001D03*
X228902500Y-142455001D03*
X228902500Y-143405000D03*
X228902500Y-144354999D03*
%TD*%
D14*
%TO.C,R21*%
X201656000Y-107972000D03*
X203306000Y-107972000D03*
%TD*%
D12*
%TO.C,R48*%
X232580000Y-126260000D03*
X230930000Y-126260000D03*
%TD*%
D15*
%TO.C,C5*%
X219040000Y-169440000D03*
X221990000Y-169440000D03*
%TD*%
D16*
%TO.C,R38*%
X237025000Y-135405000D03*
X237025000Y-137055000D03*
%TD*%
D17*
%TO.C,C9*%
X221990000Y-91335000D03*
X219040000Y-91335000D03*
%TD*%
D18*
%TO.C,C30*%
X215089999Y-126577500D03*
X216639999Y-126577500D03*
%TD*%
D19*
%TO.C,SW3*%
X207640000Y-84930000D03*
X201640000Y-84930000D03*
X207640000Y-81230000D03*
X201640000Y-81230000D03*
%TD*%
D14*
%TO.C,R24*%
X230930000Y-87207500D03*
X232580000Y-87207500D03*
%TD*%
D20*
%TO.C,R25*%
X197232500Y-147215000D03*
X203157500Y-147215000D03*
%TD*%
D18*
%TO.C,C17*%
X221917500Y-106190000D03*
X223467500Y-106190000D03*
%TD*%
D21*
%TO.C,C16*%
X213212500Y-160055000D03*
X213212500Y-158505000D03*
%TD*%
D12*
%TO.C,R51*%
X232580000Y-121815000D03*
X230930000Y-121815000D03*
%TD*%
D22*
%TO.C,U8*%
X228135000Y-83650000D03*
X229405000Y-83650000D03*
X230675000Y-83650000D03*
X231945000Y-83650000D03*
X231945000Y-78700000D03*
X230675000Y-78700000D03*
X229405000Y-78700000D03*
X228135000Y-78700000D03*
%TD*%
D23*
%TO.C,R36*%
X224325000Y-75840000D03*
X224325000Y-74190000D03*
%TD*%
D24*
%TO.C,C18*%
X217441600Y-90737500D03*
X217441600Y-92287500D03*
%TD*%
D14*
%TO.C,R22*%
X230930000Y-106257502D03*
X232580000Y-106257502D03*
%TD*%
D16*
%TO.C,R32*%
X201465000Y-101940000D03*
X201465000Y-103590000D03*
%TD*%
%TO.C,R37*%
X238930000Y-135405000D03*
X238930000Y-137055000D03*
%TD*%
D25*
%TO.C,F1*%
X233850000Y-147617500D03*
X233850000Y-151892500D03*
%TD*%
D16*
%TO.C,R14*%
X214165000Y-141755000D03*
X214165000Y-143405000D03*
%TD*%
D26*
%TO.C,R15*%
X211954001Y-86955251D03*
X211954001Y-87975249D03*
%TD*%
D12*
%TO.C,R20*%
X215752500Y-148485000D03*
X214102500Y-148485000D03*
%TD*%
D27*
%TO.C,C8*%
X226660000Y-162137500D03*
X225110000Y-162137500D03*
%TD*%
D12*
%TO.C,R18*%
X214037500Y-150072500D03*
X212387500Y-150072500D03*
%TD*%
D14*
%TO.C,R10*%
X210165000Y-158327500D03*
X211815000Y-158327500D03*
%TD*%
%TO.C,R19*%
X218102500Y-161185000D03*
X219752500Y-161185000D03*
%TD*%
D24*
%TO.C,C37*%
X232580000Y-154200000D03*
X232580000Y-155750000D03*
%TD*%
D12*
%TO.C,R11*%
X223245000Y-95780000D03*
X221595000Y-95780000D03*
%TD*%
D28*
%TO.C,U6*%
X216009999Y-92645000D03*
X215510000Y-92645000D03*
X215010000Y-92645000D03*
X214510000Y-92645000D03*
X214010000Y-92645000D03*
X213509999Y-92645000D03*
X213010000Y-92645000D03*
X212510000Y-92645000D03*
X212010000Y-92645000D03*
X211510000Y-92645000D03*
X211010001Y-92645000D03*
X210510000Y-92645000D03*
X210010000Y-92645000D03*
X209510000Y-92645000D03*
X209010000Y-92645000D03*
X208510001Y-92645000D03*
D29*
X206585000Y-94570001D03*
X206585000Y-95070000D03*
X206585000Y-95570000D03*
X206585000Y-96070000D03*
X206585000Y-96570000D03*
X206585000Y-97070001D03*
X206585000Y-97570000D03*
X206585000Y-98070000D03*
X206585000Y-98570000D03*
X206585000Y-99070000D03*
X206585000Y-99569999D03*
X206585000Y-100070000D03*
X206585000Y-100570000D03*
X206585000Y-101070000D03*
X206585000Y-101570000D03*
X206585000Y-102069999D03*
D28*
X208510001Y-103995000D03*
X209010000Y-103995000D03*
X209510000Y-103995000D03*
X210010000Y-103995000D03*
X210510000Y-103995000D03*
X211010001Y-103995000D03*
X211510000Y-103995000D03*
X212010000Y-103995000D03*
X212510000Y-103995000D03*
X213010000Y-103995000D03*
X213509999Y-103995000D03*
X214010000Y-103995000D03*
X214510000Y-103995000D03*
X215010000Y-103995000D03*
X215510000Y-103995000D03*
X216009999Y-103995000D03*
D29*
X217935000Y-102069999D03*
X217935000Y-101570000D03*
X217935000Y-101070000D03*
X217935000Y-100570000D03*
X217935000Y-100070000D03*
X217935000Y-99569999D03*
X217935000Y-99070000D03*
X217935000Y-98570000D03*
X217935000Y-98070000D03*
X217935000Y-97570000D03*
X217935000Y-97070001D03*
X217935000Y-96570000D03*
X217935000Y-96070000D03*
X217935000Y-95570000D03*
X217935000Y-95070000D03*
X217935000Y-94570001D03*
%TD*%
D27*
%TO.C,C12*%
X220477500Y-93240000D03*
X218927500Y-93240000D03*
%TD*%
D30*
%TO.C,Y1*%
X216708751Y-81556000D03*
X213008749Y-81556000D03*
%TD*%
D21*
%TO.C,C11*%
X206239001Y-104850000D03*
X206239001Y-103300000D03*
%TD*%
D18*
%TO.C,C26*%
X216742500Y-156105000D03*
X218292500Y-156105000D03*
%TD*%
D14*
%TO.C,R52*%
X215055000Y-75777500D03*
X216705000Y-75777500D03*
%TD*%
D23*
%TO.C,R30*%
X186860000Y-138515000D03*
X186860000Y-136865000D03*
%TD*%
D31*
%TO.C,D6*%
X194509998Y-102130000D03*
X196385000Y-102130000D03*
%TD*%
D16*
%TO.C,R40*%
X232580000Y-74190000D03*
X232580000Y-75840000D03*
%TD*%
D27*
%TO.C,C35*%
X192080000Y-140230000D03*
X190530000Y-140230000D03*
%TD*%
D18*
%TO.C,C1*%
X220375000Y-180235000D03*
X221925000Y-180235000D03*
%TD*%
D32*
%TO.C,C14*%
X205275000Y-89562000D03*
X205275000Y-91462000D03*
%TD*%
D24*
%TO.C,C44*%
X213530000Y-74227500D03*
X213530000Y-75777500D03*
%TD*%
D16*
%TO.C,R31*%
X203370000Y-102575000D03*
X203370000Y-104225000D03*
%TD*%
D12*
%TO.C,R16*%
X232580000Y-99907502D03*
X230930000Y-99907502D03*
%TD*%
D18*
%TO.C,C27*%
X212496250Y-78698499D03*
X214046250Y-78698499D03*
%TD*%
D19*
%TO.C,SW1*%
X229230000Y-116045000D03*
X223230000Y-116045000D03*
X229230000Y-112345000D03*
X223230000Y-112345000D03*
%TD*%
D33*
%TO.C,U5*%
X221127500Y-159645000D03*
X221127500Y-159144999D03*
X221127500Y-158645000D03*
X221127500Y-158145001D03*
X221127500Y-157645000D03*
X216727500Y-157645000D03*
X216727500Y-158145001D03*
X216727500Y-158645000D03*
X216727500Y-159144999D03*
X216727500Y-159645000D03*
%TD*%
D18*
%TO.C,C39*%
X228490000Y-145945000D03*
X230040000Y-145945000D03*
%TD*%
D27*
%TO.C,C40*%
X235400000Y-80222500D03*
X233850000Y-80222500D03*
%TD*%
D20*
%TO.C,R26*%
X197232500Y-142770000D03*
X203157500Y-142770000D03*
%TD*%
D34*
%TO.C,R1*%
X205910000Y-160405000D03*
X205910000Y-158155000D03*
%TD*%
D14*
%TO.C,R8*%
X195750000Y-168170000D03*
X197400000Y-168170000D03*
%TD*%
D35*
%TO.C,R34*%
X226547500Y-97685000D03*
X227714226Y-96518274D03*
%TD*%
D36*
%TO.C,D2*%
X235232501Y-164677500D03*
X233357499Y-164677500D03*
%TD*%
D16*
%TO.C,R2*%
X215752500Y-178775000D03*
X215752500Y-180425000D03*
%TD*%
D12*
%TO.C,R49*%
X216705000Y-73872500D03*
X215055000Y-73872500D03*
%TD*%
D31*
%TO.C,D3*%
X219464998Y-142325000D03*
X221340000Y-142325000D03*
%TD*%
D37*
%TO.C,U3*%
X215557502Y-133840000D03*
X217307502Y-133840000D03*
X215557502Y-132530000D03*
X217307502Y-132530000D03*
D38*
X214527502Y-135665000D03*
X215797502Y-135665000D03*
X217067502Y-135665000D03*
X218337502Y-135665000D03*
X218337502Y-130705000D03*
X217067502Y-130705000D03*
X215797502Y-130705000D03*
X214527502Y-130705000D03*
%TD*%
D14*
%TO.C,R6*%
X195750000Y-166265000D03*
X197400000Y-166265000D03*
%TD*%
%TO.C,R23*%
X230930000Y-93557500D03*
X232580000Y-93557500D03*
%TD*%
D27*
%TO.C,C19*%
X218825000Y-104392500D03*
X217275000Y-104392500D03*
%TD*%
D14*
%TO.C,R9*%
X210165000Y-160232500D03*
X211815000Y-160232500D03*
%TD*%
D15*
%TO.C,C3*%
X219040000Y-164360000D03*
X221990000Y-164360000D03*
%TD*%
D39*
%TO.C,J6*%
X237090000Y-146605000D03*
X237090000Y-145805000D03*
D40*
X237090000Y-144655000D03*
X237090000Y-143655000D03*
X237090000Y-143155000D03*
X237090000Y-142155000D03*
D39*
X237090000Y-141005000D03*
X237090000Y-140205000D03*
X237090000Y-140205000D03*
X237090000Y-141005000D03*
D40*
X237090000Y-141655000D03*
X237090000Y-142655000D03*
X237090000Y-144155000D03*
X237090000Y-145155000D03*
D39*
X237090000Y-145805000D03*
X237090000Y-146605000D03*
%TD*%
D12*
%TO.C,R12*%
X212260000Y-148485000D03*
X210610000Y-148485000D03*
%TD*%
D27*
%TO.C,C45*%
X203015000Y-79270000D03*
X201465000Y-79270000D03*
%TD*%
D18*
%TO.C,C24*%
X215671250Y-78698499D03*
X217221250Y-78698499D03*
%TD*%
D41*
%TO.C,C20*%
X218924999Y-106257500D03*
X217025001Y-106257500D03*
%TD*%
D42*
%TO.C,U1*%
X219880000Y-175155000D03*
D43*
X221784999Y-172280000D03*
X220515000Y-172280000D03*
X219245000Y-172280000D03*
X217975001Y-172280000D03*
X217975001Y-178030000D03*
X219245000Y-178030000D03*
X220515000Y-178030000D03*
X221784999Y-178030000D03*
%TD*%
D15*
%TO.C,C4*%
X219039999Y-166900000D03*
X221990001Y-166900000D03*
%TD*%
D14*
%TO.C,R53*%
X198100000Y-98955000D03*
X199750000Y-98955000D03*
%TD*%
D23*
%TO.C,R39*%
X227500000Y-75840000D03*
X227500000Y-74190000D03*
%TD*%
D24*
%TO.C,C25*%
X216070000Y-145170000D03*
X216070000Y-146720000D03*
%TD*%
D13*
%TO.C,U7*%
X192442500Y-138639999D03*
X192442500Y-137690000D03*
X192442500Y-136740001D03*
X190167500Y-136740001D03*
X190167500Y-138639999D03*
%TD*%
D15*
%TO.C,C7*%
X224550000Y-164360000D03*
X227500000Y-164360000D03*
%TD*%
%TO.C,C6*%
X224549999Y-166900000D03*
X227500001Y-166900000D03*
%TD*%
D14*
%TO.C,R45*%
X198100000Y-100860000D03*
X199750000Y-100860000D03*
%TD*%
D44*
%TO.C,Q1*%
X196505000Y-156827501D03*
X199555000Y-156827501D03*
X196505000Y-153477501D03*
X199555000Y-153477501D03*
D45*
X195750000Y-161452501D03*
X200310000Y-161452501D03*
%TD*%
D14*
%TO.C,R27*%
X189845000Y-135150000D03*
X191495000Y-135150000D03*
%TD*%
D31*
%TO.C,D7*%
X194509998Y-97685000D03*
X196385000Y-97685000D03*
%TD*%
D14*
%TO.C,R17*%
X219690000Y-140420000D03*
X221340000Y-140420000D03*
%TD*%
D16*
%TO.C,R5*%
X205592500Y-124355000D03*
X205592500Y-126005000D03*
%TD*%
D24*
%TO.C,C13*%
X207180000Y-89925000D03*
X207180000Y-91475000D03*
%TD*%
D23*
%TO.C,R4*%
X205592500Y-121687500D03*
X205592500Y-120037500D03*
%TD*%
D46*
%TO.C,L1*%
X229405000Y-178155000D03*
X229405000Y-172155000D03*
%TD*%
D16*
%TO.C,R7*%
X215752500Y-175600000D03*
X215752500Y-177250000D03*
%TD*%
D47*
%TO.C,D1*%
X198249998Y-164360000D03*
X195750000Y-164360000D03*
%TD*%
D16*
%TO.C,R55*%
X199560000Y-77619000D03*
X199560000Y-79269000D03*
%TD*%
D21*
%TO.C,C36*%
X234485000Y-155750000D03*
X234485000Y-154200000D03*
%TD*%
D18*
%TO.C,C10*%
X204500000Y-93240000D03*
X206050000Y-93240000D03*
%TD*%
D48*
%TO.C,Q2*%
X188425283Y-143010000D03*
X188425284Y-145310000D03*
D49*
X194725282Y-145310000D03*
D48*
X188425283Y-147610000D03*
%TD*%
D23*
%TO.C,R50*%
X241470000Y-120100000D03*
X241470000Y-118450000D03*
%TD*%
D18*
%TO.C,C29*%
X215089999Y-128170000D03*
X216639999Y-128170000D03*
%TD*%
D12*
%TO.C,R29*%
X191495000Y-133562500D03*
X189845000Y-133562500D03*
%TD*%
D35*
%TO.C,R33*%
X225277500Y-96415000D03*
X226444226Y-95248274D03*
%TD*%
D16*
%TO.C,R28*%
X188447500Y-136865000D03*
X188447500Y-138515000D03*
%TD*%
%TO.C,R13*%
X212260000Y-141755000D03*
X212260000Y-143405000D03*
%TD*%
D24*
%TO.C,C21*%
X197020000Y-136420000D03*
X197020000Y-137970000D03*
%TD*%
D32*
%TO.C,C15*%
X218610000Y-180235000D03*
X218610000Y-182135000D03*
%TD*%
D12*
%TO.C,R43*%
X232580000Y-123720000D03*
X230930000Y-123720000D03*
%TD*%
D50*
%TO.C,J14*%
X239610000Y-130070000D03*
X235710000Y-130070000D03*
X239610000Y-128800000D03*
X235710000Y-128800000D03*
X239610000Y-127530000D03*
X235710000Y-127530000D03*
X239610000Y-126260000D03*
X235710000Y-126260000D03*
X239610000Y-124990000D03*
X235710000Y-124990000D03*
X239610000Y-123720000D03*
X235710000Y-123720000D03*
X239610000Y-122450000D03*
X235710000Y-122450000D03*
%TD*%
D27*
%TO.C,C38*%
X235400000Y-82127500D03*
X233850000Y-82127500D03*
%TD*%
D51*
%TO.C,U4*%
X212075000Y-144995000D03*
X212075000Y-145945000D03*
X212075000Y-146895000D03*
X214350000Y-146895000D03*
X214350000Y-145945000D03*
X214350000Y-144995000D03*
%TD*%
D23*
%TO.C,R35*%
X226230000Y-82190000D03*
X226230000Y-80540000D03*
%TD*%
D12*
%TO.C,R46*%
X232580000Y-128165000D03*
X230930000Y-128165000D03*
%TD*%
%TO.C,R47*%
X232580000Y-130070000D03*
X230930000Y-130070000D03*
%TD*%
D18*
%TO.C,C28*%
X214977500Y-137690000D03*
X216527500Y-137690000D03*
%TD*%
M02*
