M48
; DRILL file {KiCad 9.0.7+1} date 2026-10-09T08:52:16+0000
; FORMAT={-:-/ absolute / metric / decimal}
; #@! TF.CreationDate,2026-10-09T08:52:16+00:00
; #@! TF.GenerationSoftware,Kicad,Pcbnew,9.0.7+1
; #@! TF.FileFunction,Plated,1,2,PTH
FMAT,2
METRIC
; #@! TA.AperFunction,Plated,PTH,ViaDrill
T1C0.300
; #@! TA.AperFunction,Plated,PTH,ComponentDrill
T2C0.300
; #@! TA.AperFunction,Plated,PTH,ComponentDrill
T3C0.330
; #@! TA.AperFunction,Plated,PTH,ViaDrill
T4C0.400
; #@! TA.AperFunction,Plated,PTH,ComponentDrill
T5C0.600
; #@! TA.AperFunction,Plated,PTH,ComponentDrill
T6C0.800
; #@! TA.AperFunction,Plated,PTH,ComponentDrill
T7C1.000
; #@! TA.AperFunction,Plated,PTH,ComponentDrill
T8C1.020
; #@! TA.AperFunction,Plated,PTH,ComponentDrill
T9C1.190
; #@! TA.AperFunction,Plated,PTH,ComponentDrill
T10C1.780
; #@! TA.AperFunction,Plated,PTH,ComponentDrill
T11C2.700
%
G90
G05
T1
X186.86Y-135.785
X186.86Y-147.85
X188.88Y-176.775
X189.4Y-140.23
X190.035Y-147.85
X191.305Y-137.69
X191.421Y-176.775
X191.421Y-181.855
X191.623Y-108.162
X191.623Y-132.292
X192.575Y-133.562
X193.21Y-97.685
X193.21Y-102.13
X193.528Y-108.162
X193.96Y-161.535
X195.75Y-137.94
X196.5Y-169.155
X197.337Y-169.44
X198.29Y-168.17
X198.925Y-115.305
X199.04Y-80.255
X199.04Y-82.795
X199.04Y-169.155
X199.04Y-171.695
X199.56Y-138.96
X200.83Y-170.71
X201.465Y-110.067
X201.536Y-112.996
X201.581Y-72.635
X201.581Y-75.175
X201.581Y-77.715
X201.581Y-82.795
X201.581Y-169.155
X201.581Y-174.235
X201.581Y-176.775
X201.581Y-181.855
X202.1Y-89.43
X202.115Y-91.335
X202.735Y-84.985
X203.37Y-93.24
X203.37Y-170.71
X204.005Y-79.27
X204.12Y-72.635
X204.12Y-75.175
X204.12Y-77.715
X204.12Y-80.255
X204.12Y-82.795
X204.12Y-169.155
X204.12Y-171.695
X204.12Y-174.235
X204.12Y-176.775
X204.12Y-181.855
X204.322Y-95.145
X204.64Y-88.477
X204.957Y-101.751
X204.957Y-102.765
X205.275Y-95.462
X205.402Y-104.543
X205.402Y-105.305
X205.91Y-88.477
X205.91Y-110.067
X206.545Y-84.985
X206.66Y-70.095
X206.66Y-72.635
X206.66Y-75.175
X206.66Y-77.715
X206.66Y-80.255
X206.66Y-82.795
X206.66Y-169.155
X206.66Y-171.695
X206.66Y-174.235
X206.66Y-176.775
X206.66Y-179.315
X206.66Y-181.855
X207.18Y-88.922
X208.767Y-100.86
X209.085Y-122.958
X209.2Y-174.235
X209.2Y-176.775
X209.2Y-179.315
X209.2Y-181.855
X209.72Y-100.86
X209.72Y-151.66
X210.355Y-101.495
X210.355Y-144.675
X210.99Y-94.192
X211.065Y-78.702
X211.065Y-77.428
X211.065Y-80.29
X211.065Y-81.877
X211.065Y-83.465
X211.065Y-85.052
X211.065Y-86.64
X211.065Y-88.227
X211.625Y-110.067
X211.74Y-95.495
X211.74Y-169.155
X211.74Y-171.695
X211.74Y-174.235
X211.74Y-176.775
X211.74Y-179.315
X211.74Y-181.855
X211.942Y-94.192
X212.26Y-73.237
X212.26Y-109.432
X212.636Y-77.428
X212.895Y-108.797
X213.411Y-84.731
X213.411Y-86.001
X213.411Y-87.652
X213.411Y-88.858
X213.53Y-122.958
X213.601Y-83.778
X213.639Y-110.144
X213.66Y-94.192
X213.847Y-137.055
X213.847Y-138.007
X213.968Y-77.428
X214.017Y-111.823
X214.017Y-113.093
X214.017Y-114.363
X214.017Y-115.633
X214.017Y-116.903
X214.046Y-79.651
X214.165Y-126.578
X214.165Y-128.165
X214.28Y-98.035
X214.28Y-133.595
X214.28Y-169.155
X214.28Y-171.695
X214.28Y-174.235
X214.28Y-176.775
X214.28Y-179.315
X214.72Y-94.192
X214.8Y-175.472
X214.986Y-118.476
X215.117Y-100.542
X215.117Y-125.625
X215.189Y-83.778
X215.203Y-84.731
X215.36Y-108.692
X215.435Y-144.04
X215.435Y-157.375
X215.494Y-77.428
X215.671Y-79.651
X215.752Y-105.623
X215.752Y-106.892
X215.752Y-156.105
X215.752Y-174.52
X215.824Y-86.636
X215.831Y-88.858
X215.884Y-119.374
X216.11Y-90.7
X216.218Y-110.876
X216.218Y-112.146
X216.218Y-113.416
X216.218Y-114.686
X216.218Y-115.956
X216.371Y-182.304
X216.705Y-148.485
X216.705Y-151.66
X216.73Y-95.17
X216.776Y-83.778
X216.776Y-84.731
X216.782Y-120.272
X216.82Y-90.415
X216.82Y-108.195
X216.82Y-171.695
X216.82Y-174.235
X217.063Y-117.442
X217.081Y-77.428
X217.098Y-88.862
X217.34Y-182.14
X217.68Y-121.17
X217.961Y-118.34
X218.292Y-103.4
X218.292Y-141.5
X218.351Y-77.428
X218.351Y-78.698
X218.351Y-79.969
X218.351Y-81.239
X218.351Y-82.508
X218.351Y-83.778
X218.364Y-84.731
X218.364Y-86.001
X218.364Y-87.588
X218.364Y-88.858
X218.578Y-122.068
X218.859Y-119.238
X218.927Y-107.527
X219.361Y-105.655
X219.361Y-108.195
X219.361Y-110.735
X219.476Y-122.966
X219.757Y-120.136
X219.88Y-101.812
X219.88Y-104.67
X219.88Y-106.257
X219.88Y-182.14
X220.374Y-123.864
X220.515Y-91.017
X220.515Y-91.652
X220.655Y-121.034
X220.832Y-163.09
X220.832Y-164.36
X220.832Y-165.63
X220.832Y-166.9
X220.832Y-168.17
X220.832Y-169.44
X221.272Y-124.763
X221.404Y-92.732
X221.553Y-121.932
X221.9Y-72.635
X221.9Y-75.175
X221.9Y-90.415
X221.9Y-161.535
X222.102Y-162.772
X222.17Y-125.661
X222.42Y-158.963
X222.42Y-159.915
X222.451Y-122.83
X222.737Y-171.662
X223.055Y-91.081
X223.055Y-173.25
X223.068Y-126.559
X223.225Y-128.329
X223.225Y-129.599
X223.225Y-130.869
X223.225Y-132.139
X223.225Y-133.409
X223.225Y-134.679
X223.225Y-135.949
X223.225Y-137.219
X223.225Y-138.489
X223.225Y-139.759
X223.225Y-141.029
X223.349Y-123.728
X223.373Y-163.09
X223.373Y-164.36
X223.373Y-165.63
X223.373Y-166.9
X223.373Y-168.17
X223.373Y-169.44
X223.373Y-170.71
X223.517Y-142.883
X224.007Y-162.137
X224.247Y-124.626
X224.325Y-95.145
X224.325Y-116.1
X224.415Y-143.781
X224.44Y-70.095
X224.44Y-72.635
X224.44Y-80.255
X224.44Y-108.195
X224.44Y-110.735
X224.44Y-113.275
X224.44Y-148.835
X224.44Y-151.375
X224.44Y-158.995
X224.44Y-171.695
X224.44Y-174.235
X224.642Y-161.185
X224.642Y-168.487
X224.96Y-149.755
X225.075Y-115.815
X225.145Y-125.524
X225.425Y-127.383
X225.425Y-128.653
X225.425Y-129.923
X225.425Y-131.193
X225.425Y-132.463
X225.425Y-133.733
X225.425Y-135.003
X225.425Y-136.273
X225.425Y-137.543
X225.425Y-138.813
X225.425Y-140.083
X225.425Y-141.353
X226.089Y-144.505
X226.865Y-100.225
X226.98Y-72.635
X226.98Y-77.715
X226.98Y-110.735
X226.98Y-113.275
X226.98Y-115.815
X226.98Y-151.375
X226.98Y-156.455
X227.182Y-145.945
X227.43Y-146.744
X227.5Y-99.59
X227.5Y-101.495
X227.5Y-143.405
X227.5Y-149.755
X228.135Y-100.86
X228.135Y-116.1
X228.77Y-76.73
X228.77Y-85.302
X229.087Y-98.002
X229.52Y-80.255
X229.52Y-113.275
X229.52Y-115.815
X229.52Y-133.595
X229.52Y-136.135
X229.52Y-138.675
X229.52Y-141.215
X229.52Y-174.235
X230.04Y-84.985
X230.04Y-98.002
X230.04Y-99.908
X230.04Y-101.495
X230.992Y-147.532
X231.31Y-76.73
X232.06Y-72.635
X232.06Y-133.595
X232.06Y-136.135
X232.06Y-138.675
X232.06Y-141.215
X232.06Y-174.235
X232.58Y-143.405
X232.58Y-157.058
X233.215Y-142.77
X233.215Y-144.04
X233.532Y-155.787
X233.85Y-90.7
X233.85Y-97.05
X233.85Y-103.4
X233.85Y-109.75
X234.485Y-157.058
X234.6Y-72.635
X234.6Y-75.175
X234.6Y-77.715
X234.6Y-133.595
X234.6Y-136.135
X234.6Y-138.675
X234.6Y-158.995
X234.6Y-161.535
X234.6Y-166.615
X234.6Y-169.155
X234.6Y-171.695
X234.6Y-174.235
X234.6Y-176.775
X234.6Y-179.315
X234.6Y-181.855
X235.438Y-155.787
X236.39Y-164.677
X236.707Y-80.222
X236.717Y-82.043
X237.025Y-134.515
X237.141Y-72.635
X237.141Y-75.175
X237.141Y-77.715
X237.141Y-82.795
X237.141Y-133.595
X237.141Y-156.455
X237.141Y-158.995
X237.141Y-161.535
X237.141Y-164.075
X237.141Y-166.615
X237.141Y-169.155
X237.141Y-171.695
X237.141Y-181.855
X237.66Y-128.8
X237.66Y-130.07
X237.775Y-80.255
X237.977Y-135.468
X238.676Y-142.77
X238.676Y-144.04
X238.93Y-134.515
X239.248Y-114.83
X239.248Y-117.37
X239.68Y-72.635
X239.68Y-77.715
X239.68Y-80.255
X239.68Y-82.795
X239.68Y-85.335
X239.68Y-92.955
X239.68Y-98.035
X239.68Y-105.655
X239.68Y-133.595
X239.68Y-146.295
X239.882Y-152.93
X241.978Y-151.343
X241.978Y-154.517
X242.22Y-70.095
X242.22Y-72.635
X242.22Y-75.175
X242.22Y-77.715
X242.22Y-82.795
X242.22Y-85.335
X242.22Y-87.875
X242.22Y-90.415
X242.22Y-92.955
X242.22Y-95.495
X242.22Y-98.035
X242.22Y-100.575
X242.22Y-103.115
X242.22Y-105.655
X242.22Y-108.195
X242.22Y-133.595
X242.22Y-136.135
X242.22Y-141.215
X242.22Y-143.755
X242.22Y-146.295
X242.22Y-179.315
X242.22Y-181.855
X243.692Y-152.93
T2
X215.433Y-132.485
X215.433Y-133.885
X216.433Y-132.485
X216.433Y-133.885
X217.433Y-132.485
X217.433Y-133.885
T3
X218.58Y-174.505
X218.58Y-175.805
X219.88Y-174.505
X219.88Y-175.805
X221.18Y-174.505
X221.18Y-175.805
T4
X196.339Y-115.177
X200.815Y-88.477
X202.115Y-88.477
X204.322Y-122.958
X213.212Y-140.547
X217.15Y-180.87
X219.562Y-139.278
X223.055Y-155.47
X223.69Y-177.06
X224.96Y-157.375
T6
X200.83Y-120.603
X200.83Y-124.103
X223.067Y-77.995
X223.067Y-85.615
T7
X195.115Y-111.495
X195.115Y-114.035
X195.115Y-116.575
X195.115Y-119.115
X195.115Y-121.655
X195.115Y-124.195
X195.115Y-126.735
X195.115Y-129.275
X197.655Y-111.495
X197.655Y-114.035
X197.655Y-116.575
X200.195Y-111.495
X200.195Y-114.035
X200.195Y-116.575
X202.735Y-111.495
X202.735Y-114.035
X202.735Y-129.275
X202.735Y-116.575
X205.275Y-111.495
X205.275Y-114.035
X205.275Y-129.275
X205.275Y-116.575
X207.815Y-111.495
X207.815Y-114.035
X207.815Y-116.575
X207.815Y-119.115
X207.815Y-121.655
X207.815Y-124.195
X207.815Y-126.735
X207.815Y-129.275
X209.72Y-165.802
X209.72Y-170.802
X230.04Y-154.835
X230.04Y-157.375
X230.04Y-159.915
X235.12Y-88.795
X235.12Y-95.145
X235.12Y-101.495
X235.12Y-107.845
X237.66Y-88.795
X237.66Y-95.145
X237.66Y-101.495
X237.66Y-107.845
X240.2Y-88.795
X240.2Y-95.145
X240.2Y-101.495
X240.2Y-107.845
T8
X189.4Y-115.867
X189.4Y-118.867
X189.4Y-121.867
X189.4Y-124.867
X197.425Y-180.455
X200.425Y-180.455
T9
X189.4Y-78.635
X189.4Y-81.175
X189.4Y-83.715
X189.4Y-86.255
X189.4Y-88.795
X189.4Y-91.335
X189.4Y-96.415
X189.4Y-98.955
X189.4Y-101.495
X189.4Y-104.035
X195.115Y-69.745
X197.655Y-69.745
X200.195Y-69.745
X202.735Y-69.745
X209.085Y-69.725
X211.625Y-69.725
X214.165Y-69.725
X219.25Y-69.724
X221.79Y-69.724
X228.135Y-69.725
X230.675Y-69.725
X233.215Y-69.725
T10
X188.13Y-155.075
X188.13Y-164.995
X191.53Y-155.075
X191.53Y-164.995
T11
X189.32Y-69.68
X189.32Y-179.68
X239.32Y-69.68
X239.32Y-179.68
T5
G00X237.18Y-139.085
M15
G01X238.28Y-139.085
M16
G05
G00X237.18Y-147.725
M15
G01X238.28Y-147.725
M16
G05
G00X241.61Y-139.085
M15
G01X242.21Y-139.085
M16
G05
G00X241.61Y-147.725
M15
G01X242.21Y-147.725
M16
G05
M30
