%TF.GenerationSoftware,KiCad,Pcbnew,9.0.7+1*%
%TF.CreationDate,2026-10-09T08:52:13+00:00*%
%TF.ProjectId,KNEE CONTROLLER PCBA,4b4e4545-2043-44f4-9e54-524f4c4c4552,${REVISION}*%
%TF.SameCoordinates,Original*%
%TF.FileFunction,Soldermask,Bot*%
%TF.FilePolarity,Negative*%
%FSLAX46Y46*%
G04 Gerber Fmt 4.6, Leading zero omitted, Abs format (unit mm)*
G04 Created by KiCad (PCBNEW 9.0.7+1) date 2026-10-09 08:52:13*
%MOMM*%
%LPD*%
G01*
G04 APERTURE LIST*
G04 Aperture macros list*
%AMRoundRect*
0 Rectangle with rounded corners*
0 $1 Rounding radius*
0 $2 $3 $4 $5 $6 $7 $8 $9 X,Y pos of 4 corners*
0 Add a 4 corners polygon primitive as box body*
4,1,4,$2,$3,$4,$5,$6,$7,$8,$9,$2,$3,0*
0 Add four circle primitives for the rounded corners*
1,1,$1+$1,$2,$3*
1,1,$1+$1,$4,$5*
1,1,$1+$1,$6,$7*
1,1,$1+$1,$8,$9*
0 Add four rect primitives between the rounded corners*
20,1,$1+$1,$2,$3,$4,$5,0*
20,1,$1+$1,$4,$5,$6,$7,0*
20,1,$1+$1,$6,$7,$8,$9,0*
20,1,$1+$1,$8,$9,$2,$3,0*%
G04 Aperture macros list end*
%ADD10R,1.700000X1.700000*%
%ADD11C,1.700000*%
%ADD12C,4.500000*%
%ADD13RoundRect,0.250000X0.550000X-0.550000X0.550000X0.550000X-0.550000X0.550000X-0.550000X-0.550000X0*%
%ADD14C,1.600000*%
%ADD15C,1.270000*%
%ADD16RoundRect,0.250001X-0.499999X-0.759999X0.499999X-0.759999X0.499999X0.759999X-0.499999X0.759999X0*%
%ADD17O,1.500000X2.020000*%
%ADD18RoundRect,0.250001X-0.759999X0.499999X-0.759999X-0.499999X0.759999X-0.499999X0.759999X0.499999X0*%
%ADD19O,2.020000X1.500000*%
%ADD20RoundRect,0.250000X0.620000X0.845000X-0.620000X0.845000X-0.620000X-0.845000X0.620000X-0.845000X0*%
%ADD21O,1.740000X2.190000*%
%ADD22RoundRect,0.250000X-0.750000X0.750000X-0.750000X-0.750000X0.750000X-0.750000X0.750000X0.750000X0*%
%ADD23C,2.000000*%
%ADD24RoundRect,0.250000X-0.845000X0.620000X-0.845000X-0.620000X0.845000X-0.620000X0.845000X0.620000X0*%
%ADD25O,2.190000X1.740000*%
%ADD26C,0.650000*%
%ADD27O,2.100000X1.000000*%
%ADD28O,1.600000X1.000000*%
%ADD29C,0.770000*%
%ADD30C,2.780000*%
%ADD31C,0.990600*%
G04 APERTURE END LIST*
D10*
%TO.C,J13*%
X240200000Y-95145000D03*
D11*
X237660000Y-95145000D03*
X235120001Y-95145000D03*
%TD*%
D12*
%TO.C,H3*%
X239320000Y-179680000D03*
%TD*%
D13*
%TO.C,C23*%
X200830000Y-124102651D03*
D14*
X200830000Y-120602651D03*
%TD*%
D13*
%TO.C,SW2*%
X223067500Y-85615000D03*
D14*
X223067500Y-77995000D03*
%TD*%
D10*
%TO.C,J10*%
X240200000Y-101495000D03*
D11*
X237660000Y-101495000D03*
X235120001Y-101495000D03*
%TD*%
D10*
%TO.C,J5*%
X195114998Y-129275002D03*
D11*
X195114998Y-126735002D03*
X195114998Y-124195003D03*
X195114998Y-121655002D03*
X195114998Y-119115002D03*
X195114998Y-116575002D03*
X195114998Y-114035002D03*
X195114998Y-111495001D03*
%TD*%
D10*
%TO.C,J18*%
X240200000Y-88795000D03*
D11*
X237660000Y-88795000D03*
X235120001Y-88795000D03*
%TD*%
D10*
%TO.C,JP4*%
X230040000Y-159915000D03*
D11*
X230040000Y-157375000D03*
X230040000Y-154835001D03*
%TD*%
D15*
%TO.C,J1*%
X194425000Y-178495000D03*
X203425000Y-178495000D03*
D16*
X197425000Y-180455000D03*
D17*
X200425000Y-180455000D03*
%TD*%
D15*
%TO.C,J2*%
X191360000Y-112867200D03*
X191360000Y-127867200D03*
D18*
X189400000Y-115867200D03*
D19*
X189400000Y-118867200D03*
X189400000Y-121867200D03*
X189400000Y-124867200D03*
%TD*%
D20*
%TO.C,J16*%
X214165000Y-69725000D03*
D21*
X211625000Y-69725000D03*
X209085001Y-69725000D03*
%TD*%
D22*
%TO.C,C2*%
X209720000Y-165802323D03*
D23*
X209720000Y-170802323D03*
%TD*%
D24*
%TO.C,J7*%
X189400000Y-78635001D03*
D25*
X189400000Y-81175001D03*
X189400000Y-83715000D03*
X189400000Y-86255001D03*
X189400000Y-88795001D03*
X189400000Y-91335001D03*
%TD*%
D20*
%TO.C,J9*%
X202735000Y-69745000D03*
D21*
X200195000Y-69745000D03*
X197655001Y-69745000D03*
X195115000Y-69745000D03*
%TD*%
D26*
%TO.C,J6*%
X238230000Y-146295000D03*
X238230000Y-140515000D03*
D27*
X237730000Y-147725000D03*
D28*
X241910000Y-147725000D03*
D27*
X237730000Y-139085000D03*
D28*
X241910000Y-139085000D03*
%TD*%
D29*
%TO.C,U1*%
X221180000Y-174505000D03*
X218580000Y-174505000D03*
X219880000Y-174505001D03*
X219880000Y-175804999D03*
X221180000Y-175805000D03*
X218580000Y-175805000D03*
%TD*%
D10*
%TO.C,JP1*%
X197654999Y-114035002D03*
D11*
X197654999Y-111495002D03*
X200194999Y-114035002D03*
X200194999Y-111495002D03*
X202734999Y-114035002D03*
X202734999Y-111495002D03*
X205274999Y-114035002D03*
X205274999Y-111495002D03*
%TD*%
D10*
%TO.C,J4*%
X207814999Y-129275002D03*
D11*
X207814999Y-126735002D03*
X207814999Y-124195003D03*
X207814999Y-121655002D03*
X207814999Y-119115002D03*
X207814999Y-116575002D03*
X207814999Y-114035002D03*
X207814999Y-111495001D03*
%TD*%
D20*
%TO.C,J11*%
X233215000Y-69725000D03*
D21*
X230675000Y-69725000D03*
X228135001Y-69725000D03*
%TD*%
D10*
%TO.C,J8*%
X240200000Y-107845000D03*
D11*
X237660000Y-107845000D03*
X235120001Y-107845000D03*
%TD*%
D12*
%TO.C,H2*%
X189320000Y-69680000D03*
%TD*%
%TO.C,H1*%
X189320000Y-179680000D03*
%TD*%
D20*
%TO.C,J15*%
X221790000Y-69724000D03*
D21*
X219250000Y-69724000D03*
%TD*%
D12*
%TO.C,H4*%
X239320000Y-69680000D03*
%TD*%
D30*
%TO.C,FH1*%
X188130000Y-164995000D03*
X191530000Y-164995000D03*
X188130000Y-155075000D03*
X191530000Y-155075000D03*
%TD*%
D10*
%TO.C,J3*%
X205274999Y-129274999D03*
D11*
X202734999Y-129274999D03*
%TD*%
D10*
%TO.C,JP2*%
X197655000Y-116575001D03*
D11*
X200195000Y-116575001D03*
X202735000Y-116575001D03*
X205275000Y-116575001D03*
%TD*%
D24*
%TO.C,J12*%
X189400000Y-96415000D03*
D25*
X189400000Y-98955000D03*
X189400000Y-101494999D03*
X189400000Y-104035000D03*
%TD*%
D31*
%TO.C,J17*%
X237660000Y-118640000D03*
X236644000Y-113560000D03*
X238676000Y-113560000D03*
%TD*%
M02*
